<svg width="27" height="27" viewBox="0 0 27 27" fill="none" xmlns="http://www.w3.org/2000/svg">
<path d="M9.40568 0.888051C6.70796 1.82391 4.38146 3.60021 2.76788 5.95604C1.15431 8.31186 0.338728 11.123 0.440929 13.9766C0.543131 16.8303 1.55773 19.5759 3.3357 21.8102C5.11367 24.0446 7.56129 25.6499 10.319 26.3904C12.5548 26.9673 14.8973 26.9926 17.145 26.4642C19.1812 26.0068 21.0637 25.0285 22.6083 23.625C24.2158 22.1196 25.3826 20.2046 25.9833 18.0858C26.6362 15.7816 26.7523 13.3585 26.3229 11.0025H13.7679V16.2106H21.0389C20.8936 17.0412 20.5822 17.834 20.1233 18.5415C19.6645 19.249 19.0676 19.8566 18.3684 20.3281C17.4805 20.9154 16.4797 21.3105 15.4301 21.4882C14.3774 21.6839 13.2976 21.6839 12.2449 21.4882C11.178 21.2676 10.1686 20.8272 9.28123 20.1952C7.85561 19.186 6.78516 17.7523 6.22264 16.0988C5.65061 14.4142 5.65061 12.5879 6.22264 10.9034C6.62305 9.72257 7.28499 8.64746 8.15904 7.75828C9.15929 6.72205 10.4256 5.98134 11.8191 5.61743C13.2126 5.25352 14.6795 5.28047 16.0587 5.69532C17.1361 6.02605 18.1213 6.6039 18.9358 7.38282C19.7557 6.56719 20.5741 5.74946 21.3912 4.92961C21.813 4.48875 22.2729 4.06899 22.6884 3.61758C21.4451 2.46054 19.9856 1.56022 18.3937 0.968207C15.4948 -0.0843928 12.3229 -0.11268 9.40568 0.888051Z" fill="white"/>
<path d="M9.40579 0.888099C12.3228 -0.113312 15.4947 -0.085769 18.3938 0.966146C19.986 1.56218 21.4448 2.46684 22.6864 3.62818C22.2645 4.07958 21.8195 4.50146 21.3892 4.94021C20.5707 5.75724 19.753 6.57146 18.9359 7.38286C18.1214 6.60395 17.1362 6.0261 16.0588 5.69536C14.68 5.27906 13.2133 5.25056 11.8194 5.61298C10.4255 5.9754 9.15839 6.71474 8.15704 7.7499C7.28299 8.63907 6.62105 9.71418 6.22063 10.895L1.8479 7.50943C3.41307 4.40561 6.12307 2.03143 9.40579 0.888099Z" fill="#E33629"/>
<path d="M0.687582 10.8633C0.922611 9.6985 1.31281 8.57047 1.84774 7.5094L6.22047 10.9034C5.64844 12.5879 5.64844 14.4142 6.22047 16.0988C4.7636 17.2238 3.30602 18.3544 1.84774 19.4907C0.508603 16.8251 0.10019 13.788 0.687582 10.8633Z" fill="#F8BD00"/>
<path d="M13.7678 11.0004H26.3228C26.7522 13.3564 26.6361 15.7795 25.9832 18.0836C25.3825 20.2025 24.2157 22.1175 22.6082 23.6229C21.197 22.5218 19.7795 21.4291 18.3683 20.328C19.068 19.8561 19.6651 19.2478 20.124 18.5396C20.5829 17.8313 20.894 17.0377 21.0388 16.2063H13.7678C13.7657 14.4724 13.7678 12.7364 13.7678 11.0004Z" fill="#587DBD"/>
<path d="M1.8457 19.4906C3.30398 18.3656 4.76156 17.235 6.21844 16.0988C6.78208 17.7529 7.85406 19.1867 9.28125 20.1952C10.1714 20.8243 11.1829 21.2611 12.2513 21.4777C13.3039 21.6734 14.3837 21.6734 15.4364 21.4777C16.486 21.3 17.4869 20.9048 18.3748 20.3175C19.7859 21.4186 21.2034 22.5113 22.6146 23.6123C21.0703 25.0166 19.1878 25.9957 17.1513 26.4537C14.9036 26.9821 12.5612 26.9568 10.3254 26.3798C8.55711 25.9077 6.90541 25.0754 5.47383 23.9351C3.95858 22.7321 2.721 21.216 1.8457 19.4906Z" fill="#319F43"/>
</svg>
