<svg width="16" height="17" viewBox="0 0 16 17" fill="none" xmlns="http://www.w3.org/2000/svg">
<path d="M7.34797 13.5H5.0013C4.58797 13.5 4.2213 13.4867 3.89464 13.44C2.1413 13.2467 1.66797 12.42 1.66797 10.1667V6.83333C1.66797 4.58 2.1413 3.75333 3.89464 3.56C4.2213 3.51333 4.58797 3.5 5.0013 3.5H7.30797" stroke="#6922D1" stroke-linecap="round" stroke-linejoin="round"/>
<path d="M10.0117 3.5H10.9984C11.4117 3.5 11.7784 3.51333 12.1051 3.56C13.8584 3.75333 14.3317 4.58 14.3317 6.83333V10.1667C14.3317 12.42 13.8584 13.2467 12.1051 13.44C11.7784 13.4867 11.4117 13.5 10.9984 13.5H10.0117" stroke="#6922D1" stroke-linecap="round" stroke-linejoin="round"/>
<path d="M10 1.83301V15.1663" stroke="#6922D1" stroke-linecap="round" stroke-linejoin="round"/>
<path d="M7.39608 8.50033H7.40207" stroke="#6922D1" stroke-linecap="round" stroke-linejoin="round"/>
<path d="M4.72811 8.50033H4.7341" stroke="#6922D1" stroke-linecap="round" stroke-linejoin="round"/>
</svg>
