<svg width="16" height="17" viewBox="0 0 16 17" fill="none" xmlns="http://www.w3.org/2000/svg">
<path d="M8.10573 7.74634C8.03906 7.73967 7.95906 7.73967 7.88573 7.74634C6.29906 7.69301 5.03906 6.39301 5.03906 4.79301C5.03906 3.15967 6.35906 1.83301 7.99906 1.83301C9.6324 1.83301 10.9591 3.15967 10.9591 4.79301C10.9524 6.39301 9.6924 7.69301 8.10573 7.74634Z" stroke="#6922D1" stroke-linecap="round" stroke-linejoin="round"/>
<path d="M4.7725 10.207C3.15917 11.287 3.15917 13.047 4.7725 14.1203C6.60583 15.347 9.6125 15.347 11.4458 14.1203C13.0592 13.0403 13.0592 11.2803 11.4458 10.207C9.61917 8.98699 6.6125 8.98699 4.7725 10.207Z" stroke="#6922D1" stroke-linecap="round" stroke-linejoin="round"/>
</svg>
